<svg width="20" height="23" viewBox="0 0 20 23" fill="none" xmlns="http://www.w3.org/2000/svg">
<path d="M12.4076 11.2528C12.6672 10.8265 12.9355 10.3857 13.2006 9.93118C14.0877 8.41044 14.2505 6.87814 13.6846 5.37676C12.5427 2.34747 8.72575 0.501751 7.84209 0.207261L7.22073 0L6.25093 1.93998L6.71893 2.32231C6.72417 2.32651 7.244 2.78073 7.27865 3.4693C7.30824 4.0571 6.986 4.69229 6.32112 5.35736C5.8594 5.81904 5.35264 6.26547 4.8161 6.73805C2.55865 8.72608 0 10.98 0 15.2439C0 15.3024 0.000550676 15.3607 0.00165204 15.4185C0.0180119 16.3595 0.2201 17.2879 0.596308 18.1505C0.972516 19.0131 1.51543 19.7928 2.19387 20.445C3.55621 21.7701 5.38285 22.5097 7.28332 22.5056H11.6306L11.0939 21.4166C8.91356 16.9914 10.4555 14.459 12.4076 11.2528Z" fill="#FF1111"/>
<path d="M19.8227 15.1952C19.8102 15.1453 19.797 15.0952 19.7834 15.0449C19.2384 13.0468 16.2217 10.4776 15.8795 10.1912L15.1924 9.61621L14.7418 10.3907C13.7151 12.156 12.8339 13.7662 12.4498 15.5929C12.0118 17.676 12.3066 19.7933 13.3513 22.0656L13.5534 22.5054H14.0669C14.9712 22.508 15.8641 22.3029 16.6767 21.906C17.4894 21.5091 18.2 20.931 18.754 20.2161C19.3045 19.5168 19.6872 18.7005 19.8725 17.83C20.0578 16.9595 20.0408 16.0581 19.8227 15.1952Z" fill="#FF1111"/>
</svg>
