<svg width="100" height="100" viewBox="0 0 100 100" fill="none" xmlns="http://www.w3.org/2000/svg">
<rect width="100" height="100" fill="white"/>
<path d="M29.64 43.32C29.4267 44.0933 29.32 45.0533 29.32 46.2V55.08C29.32 56.12 29.4267 57.0933 29.64 58H27.08C27.16 57.7067 27.2133 57.4267 27.24 57.16C27.2667 56.8667 27.3067 56.5733 27.36 56.28C26.16 57.56 24.7733 58.2 23.2 58.2C21.6533 58.2 20.3867 57.64 19.4 56.52C18.4133 55.3733 17.92 53.7733 17.92 51.72V46.2C17.92 45.2667 17.84 44.3067 17.68 43.32H20.2C19.9867 44.28 19.88 45.24 19.88 46.2V51.72C19.88 53.2133 20.12 54.32 20.6 55.04C21.2933 56.16 22.28 56.72 23.56 56.72C24.84 56.72 25.8533 56.2133 26.6 55.2C27.1333 54.4 27.4 53.24 27.4 51.72V46.2C27.4 45.24 27.2933 44.28 27.08 43.32H29.64ZM35.2344 44.52C35.1544 45.4 35.1144 45.96 35.1144 46.2V50.84H36.2744C37.2344 50.84 37.9944 50.56 38.5544 50C39.141 49.4133 39.4344 48.6533 39.4344 47.72C39.4344 46.7867 39.1677 46.0267 38.6344 45.44C37.9677 44.8267 37.181 44.52 36.2744 44.52H35.2344ZM36.9944 52.04L36.2744 52.08H35.1144V55.08C35.1144 56.12 35.221 57.0933 35.4344 58H32.9144C33.0744 57.04 33.1544 56.0667 33.1544 55.08V46.2C33.1544 45.2667 33.0744 44.3067 32.9144 43.32H36.2744C37.8744 43.32 39.141 43.7333 40.0744 44.56C41.061 45.3867 41.5544 46.44 41.5544 47.72C41.5544 48.9733 41.061 50.0133 40.0744 50.84C39.8877 50.9733 39.701 51.1067 39.5144 51.24C39.3277 51.3733 39.1277 51.48 38.9144 51.56L41.6744 55.72C42.2344 56.5467 42.8477 57.3067 43.5144 58H40.5944C40.0877 56.8267 39.621 55.96 39.1944 55.4L36.9944 52.04ZM47.3898 55.08C47.3898 55.2667 47.4298 55.84 47.5098 56.8H50.1098C51.1764 56.8 52.1498 56.7067 53.0298 56.52V58H45.1898C45.3498 57.04 45.4298 56.0667 45.4298 55.08V46.2C45.4298 45.2667 45.3498 44.3067 45.1898 43.32H51.8698V44.8C50.7498 44.6133 49.7764 44.52 48.9498 44.52H47.5098C47.4831 44.8133 47.4564 45.1067 47.4298 45.4C47.4031 45.6933 47.3898 45.96 47.3898 46.2V50.04H48.9498C49.6164 50.04 50.5898 49.9333 51.8698 49.72V51.52C51.0431 51.3333 50.0698 51.24 48.9498 51.24H47.3898V55.08ZM54.398 58C54.9847 57.4667 55.6247 56.72 56.318 55.76L59.798 50.88L56.238 45.6C55.7314 44.88 55.118 44.12 54.398 43.32H57.358C57.6247 44.1467 58.0647 45.0133 58.678 45.92L60.958 49.24L63.358 45.88C63.8914 45.1333 64.3714 44.28 64.798 43.32H67.078C66.358 44.0133 65.718 44.7467 65.158 45.52L61.678 50.4L65.238 55.72C65.6114 56.3067 66.2247 57.0667 67.078 58H64.118C63.8247 57.2533 63.3847 56.3867 62.798 55.4L60.518 52.04L58.118 55.44C57.5314 56.2133 57.038 57.0667 56.638 58H54.398ZM80.0853 47.2C78.9386 45.28 77.5386 44.32 75.8853 44.32C74.2586 44.32 72.9653 44.9733 72.0053 46.28C71.0453 47.5867 70.5653 49.0533 70.5653 50.68C70.5653 52.3067 71.0186 53.7333 71.9253 54.96C72.9653 56.2933 74.2453 56.96 75.7653 56.96C77.7386 56.96 79.4186 55.96 80.8053 53.96H80.9253V56C79.4586 57.4667 77.7253 58.2 75.7253 58.2C73.7253 58.2 72.0053 57.48 70.5653 56.04C69.152 54.5733 68.4453 52.7867 68.4453 50.68C68.4453 48.5733 69.152 46.7867 70.5653 45.32C71.9786 43.8533 73.632 43.12 75.5253 43.12C77.4186 43.12 78.9653 43.6267 80.1653 44.64V47.2H80.0853Z" fill="#496780"/>
<path fill-rule="evenodd" clip-rule="evenodd" d="M78.574 33.5003C69.4613 17.7167 49.2788 12.3088 33.4951 21.4215C29.7362 23.5917 26.5692 26.3866 24.0461 29.5978C21.2654 33.1369 19.2653 37.1828 18.1198 41.4574H13.9951C15.2242 36.2828 17.5606 31.3778 20.9008 27.1266C23.7336 23.5211 27.2873 20.3868 31.4951 17.9574C49.192 7.74011 71.8208 13.8035 82.0381 31.5003C83.8812 34.6928 85.1946 38.0457 86.0054 41.4574H81.8787C81.1469 38.7334 80.0513 36.059 78.574 33.5003ZM75.6136 41.4574C75.0475 39.7656 74.3044 38.1052 73.3778 36.5003C65.922 23.5864 49.409 19.1618 36.4951 26.6176C30.5439 30.0536 26.3955 35.4131 24.382 41.4574H28.6395C30.4871 36.8298 33.8451 32.7665 38.4951 30.0817C49.4959 23.7305 63.5625 27.4996 69.9137 38.5003C70.4706 39.4649 70.9497 40.453 71.3529 41.4574H75.6136ZM70.9628 59.4574H75.2856C73.1694 65.1262 69.1446 70.1213 63.4951 73.383C50.5812 80.8389 34.0683 76.4142 26.6125 63.5003C25.8551 62.1885 25.2203 60.8396 24.7046 59.4668H18.3743C19.0965 61.8717 20.1064 64.2315 21.4163 66.5003C25.7962 74.0865 32.7291 79.2739 40.5073 81.6071C48.915 84.1292 58.2967 83.3125 66.4951 78.5792C74.0904 74.194 79.283 67.2455 81.6111 59.4574H85.7661C83.3352 68.6517 77.382 76.9124 68.4951 82.0433C59.3032 87.3502 48.7772 88.2639 39.358 85.4384C30.6419 82.8238 22.862 77.0043 17.9522 68.5003C16.2738 65.5933 15.0348 62.5534 14.2146 59.4574H14.219V58.4668H42.6123V59.4645C46.3526 62.3802 51.6354 62.9098 55.9951 60.3926C56.4861 60.1092 56.9495 59.7962 57.3843 59.4574H62.9061C61.6322 61.1985 59.9835 62.7088 57.9951 63.8567C50.854 67.9797 41.8556 65.9721 37.0944 59.4668H29.0317C29.3432 60.1543 29.6913 60.833 30.0766 61.5003C36.4278 72.501 50.4944 76.2702 61.4951 69.9189C65.8365 67.4124 69.0515 63.7044 70.9628 59.4574ZM63.5238 41.4574C58.9642 34.2257 49.4639 31.8318 41.9951 36.1439C39.6663 37.4885 37.8033 39.3301 36.4629 41.4574H41.5638C42.2761 40.7553 43.0886 40.1314 43.9951 39.608C48.7804 36.8452 54.6776 37.7529 58.4267 41.4574H63.5238ZM58.4365 42.459L86.0054 42.459V41.459L58.4365 41.459V42.459Z" fill="url(#paint0_linear_300_2413)"/>
<defs>
<linearGradient id="paint0_linear_300_2413" x1="50.0002" y1="12.9941" x2="49.9675" y2="50.0001" gradientUnits="userSpaceOnUse">
<stop stop-color="#496780"/>
<stop offset="1" stop-color="white"/>
<stop offset="1" stop-color="#008BFF"/>
</linearGradient>
</defs>
</svg>
