<svg xmlns="http://www.w3.org/2000/svg" version="1.0" width="20.000000pt" height="20.000000pt" viewBox="0 0 20.000000 20.000000" preserveAspectRatio="xMidYMid meet" transform="matrix(1, 0, 0, 1, 0, 0)">

<g transform="translate(0.000000,20.000000) scale(0.100000,-0.100000)" fill="#ffffff" stroke="none">
<path d="M45 155 c-27 -24 -44 -44 -37 -45 8 0 12 -18 12 -55 l0 -55 68 1 c37 1 59 3 50 6 -12 3 -18 14 -18 34 0 22 -5 29 -20 29 -16 0 -20 -7 -20 -30 0 -25 -4 -30 -25 -30 -23 0 -25 3 -25 49 l0 50 53 4 52 3 -52 2 c-29 1 -53 4 -53 7 0 12 56 54 70 54 27 0 70 -46 71 -76 0 -16 3 -22 6 -13 3 8 10 18 15 21 8 5 -81 89 -93 89 -2 0 -26 -20 -54 -45z m65 -120 c0 -14 -4 -25 -10 -25 -5 0 -10 11 -10 25 0 14 5 25 10 25 6 0 10 -11 10 -25z" fill="#ffffff"/>
<path d="M162 45 c-13 -7 -19 -15 -14 -19 5 -3 17 3 27 14 21 23 19 23 -13 5z" fill="#ffffff"/>
</g>
</svg>