<svg width="1498" height="1545" viewBox="0 0 1498 1545" fill="none" xmlns="http://www.w3.org/2000/svg">
<g filter="url(#filter0_d_474_4063)">
<path fill-rule="evenodd" clip-rule="evenodd" d="M101.996 73.5C74.3819 73.5 51.9961 95.8858 51.9961 123.5V1335.5C51.9961 1363.11 74.3819 1385.5 101.996 1385.5H539.996C583.074 1385.5 616.334 1423.29 640.364 1459.04C664.063 1494.3 704.32 1517.5 749.996 1517.5C795.672 1517.5 835.929 1494.3 859.628 1459.04C883.659 1423.29 916.918 1385.5 959.996 1385.5H1399C1426.61 1385.5 1449 1363.11 1449 1335.5V123.5C1449 95.8858 1426.61 73.5 1399 73.5H101.996Z" fill="#F8F8F8"/>
</g>
<defs>
<filter id="filter0_d_474_4063" x="0.996094" y="0.5" width="1497" height="1544" filterUnits="userSpaceOnUse" color-interpolation-filters="sRGB">
<feFlood flood-opacity="0" result="BackgroundImageFix"/>
<feColorMatrix in="SourceAlpha" type="matrix" values="0 0 0 0 0 0 0 0 0 0 0 0 0 0 0 0 0 0 127 0" result="hardAlpha"/>
<feOffset dx="-1" dy="-23"/>
<feGaussianBlur stdDeviation="25"/>
<feComposite in2="hardAlpha" operator="out"/>
<feColorMatrix type="matrix" values="0 0 0 0 0 0 0 0 0 0 0 0 0 0 0 0 0 0 0.4 0"/>
<feBlend mode="normal" in2="BackgroundImageFix" result="effect1_dropShadow_474_4063"/>
<feBlend mode="normal" in="SourceGraphic" in2="effect1_dropShadow_474_4063" result="shape"/>
</filter>
</defs>
</svg>
